<?xml version="1.0" standalone="no"?>
<!DOCTYPE svg PUBLIC "-//W3C//DTD SVG 20010904//EN"
 "http://www.w3.org/TR/2001/REC-SVG-20010904/DTD/svg10.dtd">
<svg version="1.0" xmlns="http://www.w3.org/2000/svg"
 width="587.281713pt" height="517.567267pt" viewBox="0 0 587.281713 517.567267"
 preserveAspectRatio="xMidYMid meet">
<metadata>
Created by potrace 1.16, written by Peter Selinger 2001-2019
</metadata>
<g transform="translate(-85.717935,646.808339) scale(0.100000,-0.100000)"
fill="#000000" stroke="none">
<path d="M5187 6452 c-20 -22 -22 -55 -5 -85 8 -14 13 -66 13 -142 0 -110 2
-124 27 -170 41 -78 87 -124 209 -212 347 -247 525 -584 454 -858 -26 -99 -91
-175 -151 -175 -60 0 -141 88 -277 300 -47 74 -103 158 -124 187 -22 28 -59
89 -84 134 -117 218 -263 294 -493 255 -54 -9 -137 -29 -184 -45 l-86 -28
-115 39 c-262 88 -445 101 -574 41 -113 -53 -187 -151 -206 -272 -6 -39 -17
-61 -50 -96 -48 -52 -100 -156 -108 -214 -3 -25 1 -51 12 -74 l17 -36 39 20
39 20 -33 -44 c-38 -50 -62 -124 -53 -161 8 -33 51 -83 95 -110 50 -32 215
-96 246 -96 29 0 30 -4 10 -60 l-15 -43 33 -31 c18 -17 56 -39 84 -49 67 -24
93 -44 93 -70 0 -37 28 -66 76 -78 38 -10 48 -18 75 -65 47 -84 106 -153 157
-185 76 -48 117 -38 158 42 32 64 54 177 54 278 0 90 16 185 37 221 8 14 11
16 7 5 -5 -11 -9 -101 -10 -200 -1 -187 -12 -252 -54 -336 -25 -48 -84 -99
-117 -99 -69 0 -202 115 -258 223 -25 46 -37 59 -72 72 -45 18 -103 75 -103
103 0 11 -26 29 -80 55 -90 42 -120 77 -120 140 0 27 -5 39 -17 44 -173 60
-248 103 -294 166 -31 43 -36 85 -18 150 9 33 7 43 -12 73 -48 79 1 238 111
358 35 38 48 57 35 53 -11 -3 -57 -19 -102 -36 -206 -76 -401 -84 -683 -31
-306 59 -438 46 -655 -61 -304 -150 -666 -538 -826 -886 -141 -306 -170 -518
-133 -964 10 -123 19 -316 19 -429 0 -184 -2 -214 -23 -290 -28 -100 -58 -159
-87 -165 -11 -2 -45 -9 -75 -15 -67 -13 -106 -34 -45 -24 l40 6 -47 -32 c-47
-31 -68 -61 -29 -40 32 17 46 12 47 -17 1 -16 9 -46 17 -68 9 -22 16 -65 17
-96 0 -31 6 -71 14 -89 l13 -32 6 62 c3 34 10 67 15 72 6 6 8 -6 5 -34 -3 -23
0 -54 6 -68 9 -23 10 -22 10 15 1 42 15 74 66 146 28 40 30 49 30 138 1 79 6
109 27 168 47 127 58 215 68 563 10 326 17 437 29 445 4 2 15 -38 25 -88 34
-168 129 -471 232 -738 l17 -46 -148 -223 c-177 -266 -258 -372 -380 -500 -50
-52 -110 -121 -134 -152 -49 -65 -49 -62 28 -163 103 -135 296 -303 369 -322
39 -9 74 8 107 55 30 44 30 44 30 180 l0 137 37 70 c67 130 283 440 299 430
11 -7 47 -214 65 -375 16 -141 15 -318 -2 -501 l-6 -66 31 -11 c55 -19 280
-35 403 -28 119 7 263 36 285 59 10 10 9 24 -6 72 -27 89 -44 116 -106 169
-30 26 -62 61 -70 76 -24 47 -94 305 -132 490 -48 231 -51 348 -11 432 24 53
32 60 95 90 54 27 74 44 98 80 l30 47 180 1 c309 1 460 34 814 177 9 4 12 1 7
-13 -3 -10 -12 -67 -20 -126 -9 -59 -27 -151 -40 -205 -33 -129 -153 -483
-292 -861 -10 -27 -40 -67 -78 -105 -51 -51 -68 -77 -96 -146 l-33 -84 29 -24
c40 -32 156 -79 261 -105 71 -18 118 -22 244 -23 186 0 191 2 182 78 -9 74
-27 120 -69 175 -33 44 -36 51 -32 104 3 46 12 68 41 111 20 29 74 136 120
238 181 398 362 769 376 769 16 0 231 -379 355 -629 54 -107 70 -150 81 -215
7 -46 25 -106 39 -134 35 -69 36 -149 2 -206 -32 -55 -58 -147 -54 -193 3 -36
6 -39 53 -55 191 -62 612 -39 641 36 3 9 -6 53 -21 98 -25 75 -34 89 -95 148
-37 36 -73 79 -79 95 -6 17 -10 77 -9 140 2 135 0 142 -291 1103 -23 73 -64
217 -92 319 -57 206 -54 159 -31 480 10 134 9 133 110 247 l33 38 112 -39 c74
-25 130 -38 164 -38 49 0 53 -2 63 -29 20 -59 168 -216 203 -216 13 0 27 78
27 155 0 53 -9 112 -25 175 -41 155 -46 186 -43 232 3 38 6 43 28 43 19 0 25
-6 31 -32 10 -49 32 -77 77 -97 55 -25 109 -16 114 19 3 24 6 23 76 -34 136
-112 292 -195 442 -236 87 -23 308 -31 369 -13 76 23 60 34 -56 41 -140 8
-229 33 -390 112 -96 47 -147 79 -192 121 -34 31 -61 62 -61 68 0 14 41 36 66
36 9 0 39 -20 67 -45 173 -151 546 -251 808 -216 87 11 179 37 179 49 0 4 -91
7 -203 7 -190 0 -209 2 -312 29 -90 23 -183 56 -323 113 -17 7 -3 23 69 79
114 87 222 259 271 430 32 111 32 319 0 449 -89 360 -292 609 -662 815 -123
68 -157 95 -181 141 -27 53 -24 66 16 85 39 18 65 58 65 99 0 25 0 26 -63 19
-56 -6 -69 -3 -115 20 -32 16 -58 38 -67 56 -18 35 -17 35 -38 12z m-817
-1170 c112 -85 140 -90 194 -34 l37 37 -16 -44 c-8 -24 -29 -69 -47 -99 -41
-72 -44 -156 -10 -245 38 -100 27 -109 -28 -22 -55 88 -67 121 -76 210 -9 81
-41 133 -125 201 -61 50 -89 80 -89 97 0 6 118 -70 160 -101z m791 -349 c21
-13 34 -32 44 -67 8 -27 13 -52 10 -54 -2 -3 -25 14 -51 38 l-46 43 -70 -6
c-70 -6 -96 -15 -69 -25 8 -2 30 -19 50 -37 35 -32 39 -33 101 -28 61 5 67 3
90 -21 l24 -27 -39 17 c-33 14 -48 14 -91 5 l-52 -12 -61 62 c-67 69 -67 65
14 105 59 28 106 30 146 7z"/>
<path d="M4462 5075 c-1 -27 5 -63 14 -80 l14 -30 -6 30 c-3 17 -10 53 -14 80
l-8 50 0 -50z"/>
</g>
</svg>
